<?xml version="1.0" encoding="UTF-8"?>
<svg xmlns="http://www.w3.org/2000/svg" xmlns:xlink="http://www.w3.org/1999/xlink" width="1878" height="2348" viewBox="0 0 1878 2348">
<path fill-rule="nonzero" fill="rgb(99.609375%, 99.609375%, 99.609375%)" fill-opacity="1" d="M 0.84375 0.25 L 1877.160156 0.25 L 1877.160156 2347.75 L 0.84375 2347.75 L 0.84375 0.25 "/>
<path fill-rule="nonzero" fill="rgb(6.665039%, 5.880737%, 6.272888%)" fill-opacity="1" d="M 947.414062 100.710938 C 985.90625 121.449219 1036.601562 144.589844 1077.828125 159.53125 C 1127.519531 163.480469 1172.488281 170.96875 1218.050781 192.050781 C 1339 241.230469 1448.128906 325.03125 1533.78125 423.601562 L 1538.660156 427.089844 C 1541.441406 435.550781 1528.441406 432.351562 1523.769531 433.609375 C 1514.601562 438.738281 1503.660156 433.070312 1495.25 438.320312 L 1495.210938 440.890625 C 1522.96875 463.820312 1546.988281 490.148438 1570.011719 517.710938 C 1589.230469 541.019531 1608.160156 564.070312 1624.949219 589.230469 C 1625.921875 598.269531 1610.941406 593.441406 1605.640625 595.371094 C 1603.960938 601.550781 1610.769531 603.699219 1613.300781 609.589844 C 1616.578125 613.378906 1618.71875 622.96875 1624.738281 622.421875 C 1663.910156 600.078125 1707.320312 593.730469 1750.949219 586.789062 C 1767.441406 586.921875 1788.769531 581.488281 1804.210938 586.410156 C 1816.539062 611.78125 1822.800781 637.441406 1827.730469 664.949219 C 1828.191406 673.539062 1829.28125 680.058594 1833.148438 687.878906 C 1833.78125 698.609375 1832.898438 711.691406 1837.359375 721.539062 C 1837.230469 740.511719 1841.269531 759.53125 1841.058594 778.539062 C 1850.441406 821.578125 1843.800781 867.441406 1832.019531 909.171875 C 1827.640625 914.558594 1828.648438 919.480469 1826.929688 925.789062 C 1821 939.75 1819.859375 956.839844 1811.78125 969.75 C 1808.628906 981.109375 1804.339844 992.761719 1799.160156 1003.410156 C 1780.191406 1058.601562 1743.96875 1106.769531 1696.261719 1140.429688 C 1666.769531 1161.96875 1634.710938 1180.269531 1602.820312 1197.941406 C 1598.148438 1200.078125 1593.191406 1205.46875 1587.761719 1202.398438 C 1566.300781 1182.5 1543 1156.460938 1521.5 1138.070312 C 1519.980469 1144.261719 1526.25 1146.609375 1528.109375 1152.960938 C 1542.621094 1185.019531 1557.679688 1216.871094 1567.058594 1249.730469 C 1572.738281 1265.328125 1577.960938 1279.390625 1580.101562 1296 C 1588.390625 1317.710938 1587.761719 1345.769531 1593.359375 1369.332031 C 1596.378906 1406.730469 1596.128906 1443.710938 1593.519531 1481.109375 C 1587.339844 1505.722656 1585.320312 1528.230469 1575.519531 1552.628906 C 1567.730469 1576.230469 1559.828125 1601.429688 1548.128906 1623.308594 C 1543.800781 1624.484375 1540.640625 1616.027344 1538.921875 1613.125 C 1530.378906 1600.464844 1523.179688 1586.746094 1515.230469 1573.664062 C 1514.46875 1570.761719 1512.371094 1570.003906 1508.878906 1571.394531 C 1477.371094 1663.609375 1419.558594 1746.191406 1362.179688 1824.441406 C 1359.988281 1826.964844 1356.5 1833.78125 1352.589844 1833.109375 C 1337.570312 1811.527344 1324.699219 1787.589844 1311.570312 1764.789062 L 1306.941406 1764.871094 C 1302.359375 1816.238281 1287.800781 1870.636719 1268.449219 1918.636719 C 1263.949219 1932.605469 1259.949219 1945.8125 1252.25 1958.433594 C 1247.75 1975.011719 1237.320312 1990.324219 1232.191406 2006.3125 C 1230.589844 2009.171875 1228.648438 2010.390625 1226.339844 2009.972656 C 1216.910156 1995.878906 1207.660156 1974.757812 1197.519531 1962.601562 C 1176.648438 2008.960938 1144.429688 2044.382812 1108.921875 2080.144531 C 1086.5 2102.484375 1064.121094 2125.367188 1039.96875 2145.855469 C 1028.359375 2146.742188 1028.148438 2123.390625 1022.171875 2116.578125 C 1018.601562 2112.621094 1020.53125 2096.128906 1011.949219 2100.378906 C 1006.230469 2116.660156 995.921875 2131.46875 991.753906 2148.085938 C 978.125 2171.308594 964.410156 2207.027344 952.546875 2229.953125 C 949.515625 2235.886719 946.742188 2245.730469 940.9375 2249.054688 C 917.628906 2204.039062 900.507812 2159.613281 877.242188 2112.15625 C 875.9375 2106.6875 873.835938 2100.757812 869.417969 2097.265625 C 862.308594 2114.011719 857.550781 2132.519531 849.265625 2148.550781 L 847.75 2148.507812 C 827.304688 2130.082031 807.152344 2110.519531 787.800781 2090.871094 C 753.34375 2055.195312 716.449219 2018.636719 694.742188 1973.328125 C 692.765625 1968.953125 689.988281 1960.875 684.308594 1966.808594 C 676.652344 1981.109375 667.859375 1995.539062 659.613281 2009.550781 L 654.859375 2009.253906 C 646.445312 1987.421875 634.035156 1966.34375 626.460938 1943.878906 C 601.179688 1885.148438 585.066406 1823.855469 575.261719 1760.707031 C 568.449219 1765.039062 567.984375 1774.757812 561.96875 1781.195312 C 553.261719 1798.570312 540.136719 1814.554688 533.195312 1832.5625 C 528.019531 1833.90625 525.621094 1829.910156 523.140625 1826.085938 C 487.546875 1778.292969 452.96875 1729.113281 423.011719 1677.578125 C 403.324219 1641.648438 388.683594 1608.160156 374.085938 1570.046875 L 371.6875 1570.003906 C 361.800781 1583.761719 353.007812 1599.453125 343.921875 1613.882812 C 341.902344 1616.660156 338.621094 1624.1875 334.371094 1623.179688 C 319.855469 1588.976562 309.929688 1558.8125 300.128906 1523.179688 C 291.417969 1487.167969 288.976562 1446.78125 289.777344 1409.59375 C 291.207031 1386.410156 290.617188 1360.539062 296.59375 1338.320312 C 301.976562 1306.351562 306.898438 1278.5 318.636719 1247.871094 C 328.1875 1214.511719 341.101562 1185.738281 355.910156 1154.398438 C 358.898438 1148.511719 365.714844 1140.601562 364.914062 1133.871094 C 343.628906 1155.871094 321.496094 1177.621094 300.253906 1199.910156 C 296.507812 1204.839844 290.828125 1203.789062 286.410156 1200.378906 C 261.675781 1185.78125 235.675781 1171.941406 211.359375 1156.289062 C 169.753906 1130.578125 130.585938 1094.78125 107.066406 1051.488281 C 82.5 1006.519531 64.871094 954.058594 51.410156 904.75 C 45.519531 890.699219 47.664062 874.460938 40.640625 860.789062 C 34.875 795.199219 46.992188 736.890625 53.09375 673.371094 C 60.371094 646.28125 63.820312 619.21875 77.070312 593.441406 C 79.300781 587.589844 82.078125 583.300781 89.1875 584.261719 C 143.5 585.441406 208.414062 594.28125 256.753906 619.980469 C 259.445312 621.960938 262.136719 622.550781 264.789062 621.710938 C 269.710938 615.308594 273.496094 608.199219 278.585938 601.851562 C 280.101562 592.429688 264.789062 597.050781 259.359375 595.710938 C 258.265625 592.679688 258.644531 590.28125 260.539062 588.511719 C 297.644531 534.921875 341.144531 483.039062 390.785156 440.550781 C 391.753906 436.679688 390.785156 434.871094 387.882812 435.128906 C 374.632812 433.53125 360.582031 434.539062 347.582031 431.71875 C 345.980469 425.28125 352.839844 424.519531 356.039062 418.550781 C 413.503906 353.890625 479.511719 295.238281 553.386719 250.058594 C 612.410156 213.539062 677.242188 181.53125 745.269531 167.269531 C 761.042969 162.980469 780.355469 164.699219 795.964844 160.578125 C 813.167969 160.03125 826.96875 150.398438 841.984375 146.230469 C 870.929688 134.070312 898.863281 121.5 926.378906 106.21875 C 933.066406 103.28125 939.671875 97.351562 947.414062 100.710938 "/>
<path fill-rule="nonzero" fill="rgb(99.609375%, 99.609375%, 99.609375%)" fill-opacity="1" d="M 566.472656 435.511719 C 590.410156 435.25 614.472656 435.25 638.410156 435.511719 C 660.160156 443.921875 692.21875 436.21875 710.433594 451.871094 C 758.476562 493.390625 797.140625 542.910156 831.132812 596.210938 C 835.929688 600.289062 839.464844 612.789062 845.140625 613.589844 C 846.109375 599.070312 840.640625 582.539062 837.441406 568.191406 C 830.921875 540.851562 816.914062 517.539062 802.105469 494.398438 C 807.992188 493.019531 808.960938 497.558594 812.960938 500.710938 C 828.398438 515.269531 845.730469 530.671875 858.816406 547.328125 C 896.382812 589.269531 918.890625 637.398438 940.769531 688.429688 C 947.878906 684.898438 949.515625 670.421875 954.269531 663.691406 C 983.175781 598.109375 1021.878906 535.839844 1080.691406 493.898438 C 1081.828125 498.820312 1077.371094 502.308594 1074.96875 506.179688 C 1058.859375 532.519531 1047.710938 562.808594 1042.789062 593.179688 C 1041.308594 598.648438 1039.511719 607.398438 1041.691406 612.75 C 1044.71875 612.03125 1048.128906 605.339844 1049.640625 602.691406 C 1081.738281 555.191406 1113.71875 508.921875 1156.75 470.339844 C 1169.121094 459.859375 1176.691406 447.789062 1193.191406 443.921875 C 1229.828125 435.839844 1271.480469 436.679688 1309.210938 437.058594 C 1313.589844 436.769531 1317.671875 437.359375 1321.460938 438.828125 L 1321.421875 440.761719 C 1251.289062 473.070312 1191.128906 528.648438 1147.078125 591.5 L 1151.621094 591.5 C 1169.25 577.949219 1188.980469 566.640625 1208.960938 556.921875 C 1256.839844 538.371094 1308.839844 537.359375 1359.699219 539.289062 C 1370.511719 542.949219 1384.441406 539.800781 1395.671875 545.21875 C 1337.398438 560.199219 1279.769531 580.941406 1229.28125 614.601562 C 1226.628906 615.730469 1224.441406 617.839844 1222.800781 620.949219 C 1235.261719 622.339844 1245.480469 613.539062 1258.730469 614.71875 C 1275.480469 610.351562 1289.820312 612.410156 1307.28125 612.199219 L 1307.28125 616.738281 C 1299.5 617.371094 1290.910156 618.46875 1283.71875 621.621094 C 1238.289062 636.640625 1194.789062 664.578125 1155.410156 692.050781 C 1083.378906 743.789062 1019.980469 801.558594 954.480469 861.289062 C 950.148438 864.449219 946.488281 872.488281 940.347656 869.671875 C 888.894531 821.871094 836.140625 773.871094 780.984375 730.371094 C 735.84375 694.148438 692.007812 662.808594 640.304688 636.808594 C 619.691406 628.941406 601.9375 618.171875 579.132812 616.738281 L 579.132812 612.199219 C 590.449219 611.949219 601.851562 611.949219 613.167969 612.199219 C 622.507812 616.660156 635.128906 613.800781 644.722656 617.421875 C 649.855469 618.261719 654.355469 621.921875 659.445312 620.949219 C 661.675781 614.550781 652.628906 613.839844 648.71875 610.261719 C 600.378906 579.929688 544.679688 560.410156 490.03125 545.558594 C 500.84375 538.371094 529.363281 539.539062 543.542969 538.621094 C 578.460938 537.988281 617.078125 539.328125 650.527344 549.429688 C 680.566406 553.890625 710.855469 577.660156 736.222656 592.050781 C 738.410156 587.628906 732.269531 582.921875 730.039062 579.550781 C 697.308594 534.75 658.058594 496.628906 611.824219 465.878906 C 596.257812 456.828125 579.890625 444.128906 562.308594 440.050781 L 562.308594 439.671875 L 566.472656 435.511719 "/>
<path fill-rule="nonzero" fill="rgb(99.609375%, 99.609375%, 99.609375%)" fill-opacity="1" d="M 114.429688 628.019531 C 129.785156 624.820312 149.683594 629.199219 164.914062 632.390625 C 177.578125 636.769531 193.355469 638.53125 204.714844 646.191406 C 257.890625 664.449219 302.859375 704.671875 323.476562 757.511719 C 337.148438 807.738281 346.191406 863.230469 347.75 915.480469 C 352.378906 925.238281 351.410156 938.449219 351.957031 949.140625 C 356.628906 956.960938 354.230469 968.238281 357.046875 976.570312 C 359.65625 987.25 358.8125 999.410156 362.097656 1009.929688 C 362.980469 1017.160156 361.96875 1020.609375 357.339844 1026 C 328.609375 1065.878906 308.457031 1106.308594 289.273438 1151.160156 C 283.929688 1152.171875 281.488281 1148.589844 276.945312 1146.230469 C 257.675781 1136.601562 238.746094 1125.578125 220.738281 1113.710938 C 181.363281 1086.238281 148.507812 1051.371094 132.183594 1005.550781 C 110.769531 956.539062 95.835938 897.46875 82.582031 845.851562 C 79.089844 814.179688 83.296875 788.011719 89.523438 757.511719 C 94.109375 744.46875 92.511719 729.03125 99.160156 716.949219 C 112.117188 713.171875 128.480469 717.578125 141.984375 717.371094 C 144.511719 720.359375 144.59375 723.390625 142.195312 726.460938 C 127.554688 747.070312 119.730469 770.761719 115.355469 795.371094 C 111.441406 831.71875 114.011719 866.890625 116.363281 902.820312 L 120.910156 902.859375 C 122.550781 891.800781 124.441406 881.570312 128.230469 871.101562 C 147.453125 826.710938 169.289062 785.859375 207.363281 754.179688 L 211.191406 753.550781 C 236.304688 775.089844 249.855469 807.320312 261.96875 837.441406 C 261.546875 845.519531 254.3125 845.351562 248.675781 848.800781 C 228.859375 857.300781 207.234375 872.441406 200.503906 893.941406 C 196.128906 927.851562 205.300781 964.238281 223.265625 993.101562 C 239.589844 1020.320312 262.726562 1046.28125 290.746094 1061.71875 C 294.027344 1065.078125 298.359375 1059.148438 298.570312 1056.199219 C 302.523438 1023.980469 315.648438 991.539062 334.960938 965.328125 C 339.757812 959.488281 338.285156 953.550781 336.894531 946.820312 C 321.414062 891.960938 307.53125 852.539062 289.777344 799.578125 C 281.320312 782.960938 274.128906 767.769531 262.601562 752.75 C 237.945312 720.320312 203.449219 697.851562 165.25 684.601562 C 143.121094 675.71875 121.289062 673.621094 98.992188 667.691406 C 95.414062 653.808594 101.597656 635.289062 114.429688 628.019531 "/>
<path fill-rule="nonzero" fill="rgb(99.609375%, 99.609375%, 99.609375%)" fill-opacity="1" d="M 1742.539062 628.191406 C 1755.03125 627.601562 1768.738281 622.460938 1777.75 634.03125 C 1784.019531 642.609375 1789.109375 656.789062 1786.960938 667.351562 C 1770.089844 671.898438 1750.488281 675.011719 1733.871094 680.601562 C 1683.378906 695.878906 1637.148438 726.328125 1610.648438 773.199219 C 1588.261719 809.761719 1578.710938 853.890625 1563.570312 894.019531 C 1559.738281 916.109375 1549.730469 933.359375 1547.199219 955.238281 C 1547.328125 965.878906 1558.941406 973.960938 1562.808594 983.929688 C 1577.828125 1007.738281 1582.710938 1033.109375 1588.140625 1060.160156 C 1593.78125 1066.128906 1602.691406 1055.070312 1607.910156 1052.421875 C 1654.148438 1018.210938 1689.398438 959.269531 1685.109375 900.550781 C 1684.558594 878.878906 1666.429688 865.710938 1649.769531 855.320312 C 1642.199219 850.101562 1631.179688 848.039062 1624.988281 841.480469 C 1621.921875 835.078125 1629.410156 827.300781 1630.171875 820.609375 C 1640.679688 797.519531 1652.929688 775.679688 1670.050781 756.671875 C 1672.28125 753.550781 1675.101562 752.75 1678.5 754.351562 C 1721.289062 792.050781 1750.441406 849.46875 1765.878906 902.988281 C 1766.980469 899.910156 1768.371094 897.101562 1770.050781 894.398438 C 1771.390625 856.199219 1776.820312 811.019531 1765.039062 774.339844 C 1762.859375 756.160156 1751.289062 739.378906 1742.199219 723.851562 C 1742.371094 720.988281 1744.511719 718.851562 1748.640625 717.371094 C 1759.238281 716.621094 1769.710938 715.058594 1780.398438 714.890625 C 1790.660156 716.828125 1786.960938 727.089844 1791.078125 734.121094 C 1792.179688 745.21875 1795.710938 755.03125 1796.96875 765.921875 C 1806.269531 806.941406 1806.230469 850.269531 1790.75 889.820312 C 1782.460938 923.519531 1768.699219 959.570312 1758.058594 992.851562 C 1746.53125 1026.039062 1729.789062 1056.421875 1704.421875 1081.148438 C 1678.128906 1107.609375 1645.308594 1128.308594 1612.121094 1144.929688 C 1607.03125 1146.648438 1602.269531 1152.839844 1596.761719 1151.488281 C 1588.101562 1138.410156 1585.738281 1124.398438 1577.238281 1111.230469 C 1561.890625 1080.019531 1545.898438 1049.808594 1524.910156 1021.828125 C 1520.988281 1001.050781 1530.328125 976.988281 1529.75 955.238281 C 1534.039062 939.25 1532.480469 925.121094 1536.429688 908.960938 C 1540.730469 898.609375 1538.03125 886.539062 1540.429688 875.300781 C 1544.96875 845.601562 1546.570312 815.898438 1553.769531 786.960938 C 1564.03125 740.679688 1590.28125 700.671875 1628.949219 673.070312 C 1662.21875 649.558594 1702.441406 634.199219 1742.539062 628.191406 "/>
<path fill-rule="nonzero" fill="rgb(99.609375%, 99.609375%, 99.609375%)" fill-opacity="1" d="M 1376.53125 637.269531 C 1422.300781 636.179688 1469.121094 634.5 1511.148438 655.238281 C 1517.421875 657.261719 1527.261719 661 1530.25 667.230469 C 1502.058594 676.230469 1472.910156 685.398438 1446.28125 696.761719 C 1410.769531 709.300781 1375.808594 731.421875 1342.871094 749.640625 C 1326.71875 749.679688 1310.691406 746.398438 1294.320312 747.160156 C 1297.269531 742.660156 1300.039062 741.980469 1305.011719 740.300781 C 1314.730469 735.039062 1324.359375 728.691406 1332.519531 721.578125 C 1320.570312 716.148438 1301.261719 723.011719 1288.179688 723.519531 C 1274.46875 723.980469 1263.480469 729.949219 1250.53125 733.359375 C 1216.910156 744.511719 1180.570312 760.921875 1151.160156 780.808594 C 1149.480469 775.011719 1156.5 772.019531 1159.488281 767.648438 C 1168.320312 757.128906 1177.871094 751.699219 1185.320312 742.570312 C 1176.691406 741.441406 1167.191406 751.699219 1159.660156 755.238281 C 1090.070312 799.621094 1029.199219 850.308594 957.761719 898.609375 C 956.082031 891.839844 968.449219 884.519531 972.65625 879.761719 C 1048.589844 805.378906 1137.78125 743.25 1230.421875 691.671875 C 1263.191406 674.460938 1299.03125 657.839844 1334.199219 646.910156 C 1348.261719 640.339844 1361.96875 641.058594 1376.53125 637.269531 "/>
<path fill-rule="nonzero" fill="rgb(99.609375%, 99.609375%, 99.609375%)" fill-opacity="1" d="M 463.609375 637.949219 C 485.023438 638.371094 510.519531 636.011719 530.921875 642.53125 C 545.3125 644 557.089844 651.621094 571.058594 654.269531 C 588.472656 663.730469 608.835938 668.910156 625.410156 679.851562 C 639.546875 683.671875 652.335938 692.640625 665.546875 698.820312 C 696.550781 715.519531 724.609375 733.570312 753.894531 753.050781 C 816.492188 794.949219 875.683594 840.261719 928.652344 894.070312 L 928.652344 898.609375 C 892.050781 872.53125 861.800781 852.589844 825.410156 824.988281 C 785.824219 795.371094 752.378906 773.03125 711.824219 745.851562 C 708.246094 743.289062 704.714844 742.191406 701.136719 742.570312 C 713.042969 755.621094 725.496094 764.371094 739.335938 780.808594 C 733.574219 782.121094 732.480469 777.949219 728.019531 775.429688 C 688.179688 752.421875 643.5 732.351562 598.234375 723.679688 C 584.769531 723.46875 569.332031 717.628906 556.628906 720.699219 C 559.234375 731.589844 583.679688 736.679688 587.925781 747.160156 C 574.507812 747.410156 561.085938 749.46875 547.75 749.601562 C 534.582031 744.511719 522.632812 734.710938 509.886719 728.308594 C 461.757812 700.460938 408.710938 684.050781 355.996094 667.308594 C 360.496094 657.261719 370.761719 657.679688 379.472656 652.671875 C 406.480469 641.769531 434.414062 637.191406 463.609375 637.949219 "/>
<path fill-rule="nonzero" fill="rgb(99.609375%, 99.609375%, 99.609375%)" fill-opacity="1" d="M 456.628906 729.488281 C 465.125 723.730469 479.597656 734.789062 488.050781 737.820312 C 496.046875 743.25 511.484375 748.511719 516.617188 755.828125 C 504.542969 761.460938 491.671875 766.808594 479.890625 773.121094 C 468.617188 773.871094 480.605469 760.578125 478.585938 755.148438 C 465.753906 761.671875 460.246094 779.550781 447.035156 787.761719 C 411.988281 809.839844 385.484375 844.71875 369.121094 881.78125 L 368.785156 881.78125 C 367.355469 871.179688 374.421875 860.328125 376.691406 850.058594 C 394.867188 804.75 422.128906 764.199219 456.628906 729.488281 "/>
<path fill-rule="nonzero" fill="rgb(99.609375%, 99.609375%, 99.609375%)" fill-opacity="1" d="M 1416.28125 729.988281 C 1419.898438 728.269531 1423.21875 727.96875 1426.210938 729.109375 C 1456 756.371094 1477.449219 790.28125 1497.269531 824.820312 C 1504.339844 843.5 1514.101562 860.621094 1517.628906 881.820312 C 1511.570312 878.078125 1513.089844 874.078125 1508.878906 869.160156 C 1496.261719 840.46875 1474.800781 816.621094 1450.441406 797.21875 C 1437.441406 788.980469 1426.289062 778.921875 1417.921875 765.921875 C 1415.570312 762.140625 1413 758.101562 1407.910156 759.398438 C 1409.050781 763.859375 1412.371094 769.160156 1409.761719 773.621094 C 1404.289062 776.019531 1400.039062 770.171875 1394.738281 768.488281 C 1387.171875 763.441406 1376.269531 761.339844 1370.050781 755.238281 C 1384.941406 746.109375 1400.421875 737.359375 1416.28125 729.988281 "/>
<path fill-rule="nonzero" fill="rgb(99.609375%, 99.609375%, 99.609375%)" fill-opacity="1" d="M 694.996094 799.328125 C 781.195312 833.949219 861.632812 885.691406 935.46875 941.691406 C 938.285156 943.539062 939.378906 946.648438 938.746094 951.03125 C 938.199219 964.109375 933.574219 974.171875 932.855469 987.039062 C 926.84375 1002.480469 926.632812 1019.898438 920.699219 1034.289062 C 918.007812 1036.679688 914.304688 1036.851562 909.550781 1034.789062 C 886.078125 1024.949219 865.082031 1005.171875 852.210938 983.339844 C 848.59375 978.839844 851.664062 972.191406 844.175781 973.960938 C 843.289062 986.789062 845.269531 1001.808594 841.691406 1013.96875 C 834.117188 1018.011719 820.40625 1008.371094 812.789062 1005.46875 C 760.371094 977.871094 712.371094 943.460938 657.46875 920.320312 C 628.902344 908.078125 600.339844 898.480469 568.785156 900.628906 C 539.253906 900.671875 511.570312 916.699219 496.046875 941.769531 C 481.449219 962.089844 476.148438 989.441406 477.199219 1014.128906 C 477.113281 1040.71875 487.589844 1068.410156 499.199219 1092.171875 C 530.710938 1147.238281 580.058594 1193.898438 636.097656 1223.140625 C 640.808594 1224.53125 650.023438 1226.039062 648.550781 1232.898438 C 645.308594 1238.03125 634.960938 1243.25 633.363281 1248.511719 C 648.675781 1252.378906 668.660156 1241.101562 684.644531 1243.25 C 674.171875 1254.519531 660.328125 1266.601562 645.6875 1272.230469 C 643.964844 1273.871094 642.785156 1275.558594 642.238281 1277.238281 C 646.992188 1280.140625 659.867188 1276.78125 655.53125 1286.03125 C 644.636719 1297.808594 636.644531 1311.949219 626.503906 1324.441406 C 618.765625 1329.738281 611.191406 1317.839844 604.378906 1315.101562 C 549.726562 1275.769531 499.578125 1227.769531 461.128906 1172.320312 C 448.632812 1151.660156 433.152344 1129.570312 427.261719 1106.140625 C 420.320312 1073.238281 414.011719 1040.390625 406.984375 1007.53125 C 401.050781 975.558594 387.882812 952 393.816406 918.46875 C 401.808594 889.78125 431.847656 867.230469 448.210938 842.988281 C 460.117188 828.769531 473.707031 814.558594 489.734375 805.050781 C 550.738281 769.078125 631.46875 771.558594 694.996094 799.328125 "/>
<path fill-rule="nonzero" fill="rgb(99.609375%, 99.609375%, 99.609375%)" fill-opacity="1" d="M 1326.039062 781.609375 C 1368.410156 786.828125 1411.699219 809.171875 1437.019531 844.339844 C 1449.558594 859.820312 1462.480469 874.761719 1475.769531 889.609375 C 1483.679688 901.351562 1493.730469 915.398438 1493.308594 929.988281 C 1494.699219 947.199219 1488.558594 959.859375 1486.121094 976.269531 C 1483.171875 993.730469 1477.410156 1011.570312 1475.558594 1029.070312 C 1470.050781 1040.390625 1469.25 1054.480469 1467.148438 1066.96875 C 1461.210938 1083.039062 1461.550781 1099.070312 1455.160156 1114.851562 C 1441.949219 1146.488281 1421.671875 1175.558594 1400.511719 1202.359375 C 1364.789062 1247.449219 1321.160156 1286.539062 1274.46875 1319.941406 C 1270.300781 1322.839844 1265.078125 1327.558594 1259.78125 1324.441406 C 1249.769531 1312.121094 1241.019531 1298.359375 1230.671875 1286.28125 C 1225.621094 1276.859375 1239.039062 1279.171875 1244.171875 1277.238281 C 1239.878906 1270.210938 1232.480469 1271.101562 1226.039062 1265.421875 C 1218.71875 1258.101562 1207.148438 1251.449219 1201.769531 1243.25 C 1216.660156 1240.851562 1238.710938 1253.011719 1253.261719 1248.761719 C 1252.460938 1243.121094 1240.558594 1238.28125 1237.699219 1232.898438 C 1236.808594 1223.601562 1244.011719 1226.671875 1249.730469 1223.261719 C 1298.53125 1198.109375 1342.109375 1160.578125 1372.949219 1115.101562 C 1393.820312 1082.960938 1411.230469 1044.71875 1409.089844 1005.71875 C 1407.738281 971.558594 1393.191406 936.429688 1364.28125 916.359375 C 1332.691406 895.621094 1293.359375 897.46875 1258.730469 908.828125 C 1215.148438 922.929688 1173.460938 946.019531 1134.160156 969.578125 C 1107.910156 986.03125 1081.410156 1003.488281 1052.800781 1015.140625 C 1049.941406 1017.160156 1046.28125 1017.578125 1041.898438 1016.410156 C 1040.511719 1004.578125 1043.960938 983.339844 1037.699219 974 C 1024.488281 1000.839844 1000.96875 1025.410156 972.65625 1036.089844 C 963.609375 1039.25 963.90625 1030.421875 962.308594 1024.398438 C 954.902344 1007.53125 955.53125 991.75 949.347656 974.378906 C 949.726562 965.078125 943.710938 951.789062 948.214844 943.578125 C 989.105469 911.988281 1031.511719 882.921875 1075.941406 856.539062 C 1118.089844 830.410156 1165.628906 806.769531 1212.449219 791.039062 C 1247.710938 778.5 1289.230469 774.878906 1326.039062 781.609375 "/>
<path fill-rule="nonzero" fill="rgb(6.665039%, 5.880737%, 6.272888%)" fill-opacity="1" d="M 205.050781 826.75 C 192.21875 840.050781 183.59375 850.519531 174.632812 866.890625 C 163.988281 894.109375 163.441406 922.761719 169.289062 951.03125 C 175.726562 984.480469 186.957031 1019.351562 206.183594 1047.789062 C 208.246094 1053.851562 215.230469 1056.621094 213.632812 1062.808594 C 185.234375 1040.640625 161.632812 1003.910156 145.183594 972.058594 C 136.265625 945.429688 125.914062 922.628906 133.152344 893.691406 C 140.132812 865.171875 165.546875 842.699219 191.164062 830.460938 C 196.128906 826.078125 198.570312 826.078125 205.050781 826.75 "/>
<path fill-rule="nonzero" fill="rgb(6.665039%, 5.880737%, 6.272888%)" fill-opacity="1" d="M 1700.128906 834.371094 C 1728.949219 848.550781 1752.039062 876.269531 1754.859375 908.960938 C 1756.289062 934.621094 1745.230469 954.730469 1735.640625 977.410156 C 1721.839844 1007.320312 1701.261719 1031.96875 1679.601562 1056.371094 C 1675.601562 1059.53125 1674.628906 1064.070312 1668.738281 1062.679688 C 1684.480469 1041.101562 1697.601562 1011.910156 1706.941406 987 C 1716.960938 949.851562 1725.03125 906.101562 1711.148438 868.78125 C 1704.800781 851.828125 1692.769531 840.46875 1681.371094 827.128906 C 1685.949219 824.648438 1695.421875 832.21875 1700.128906 834.371094 "/>
<path fill-rule="nonzero" fill="rgb(6.665039%, 5.880737%, 6.272888%)" fill-opacity="1" d="M 554.226562 843.921875 C 515.441406 856.839844 473.246094 882.410156 452.753906 918.929688 C 435.550781 953.128906 442.28125 992.050781 440.640625 1029.03125 C 436.011719 1026.25 435.464844 1023.558594 435.003906 1018.339844 C 426.839844 986.238281 425.789062 952.5 427.683594 919.269531 C 434.328125 906.519531 444.34375 896.890625 452.925781 885.648438 C 464.996094 873.449219 477.15625 858.351562 493.058594 851.03125 C 509.675781 845.691406 538.117188 837.988281 554.226562 843.921875 "/>
<path fill-rule="nonzero" fill="rgb(6.665039%, 5.880737%, 6.272888%)" fill-opacity="1" d="M 1331.640625 843.078125 C 1348.761719 838.871094 1372.449219 845.058594 1389.148438 850.148438 C 1402.691406 854.859375 1412.160156 865.839844 1422.339844 875.679688 C 1433.949219 888.71875 1447.460938 901.980469 1455.699219 917.371094 C 1460.789062 950.609375 1455.578125 987.878906 1450.320312 1020.699219 C 1448.929688 1022.460938 1447.410156 1025.238281 1445.769531 1029.03125 C 1442.949219 1000.25 1448.089844 968.398438 1439.039062 938.410156 C 1433.570312 913.378906 1416.699219 895.160156 1397.898438 878.800781 C 1377.488281 863.359375 1355.410156 853.050781 1331.640625 844.210938 L 1331.640625 843.078125 "/>
<path fill-rule="nonzero" fill="rgb(99.609375%, 99.609375%, 99.609375%)" fill-opacity="1" d="M 630.039062 952.96875 C 609.761719 968.871094 587.085938 982.710938 575.261719 1007.988281 C 572.023438 1002.730469 574.84375 994.070312 578.164062 988.890625 C 584.476562 975.558594 593.605469 966.929688 606.648438 960.289062 C 615.105469 956.878906 620.402344 950.988281 630.039062 952.96875 "/>
<path fill-rule="nonzero" fill="rgb(99.609375%, 99.609375%, 99.609375%)" fill-opacity="1" d="M 1261.339844 952.878906 C 1278.128906 958.011719 1292.769531 967.820312 1303.371094 981.988281 C 1307.199219 989.191406 1314.351562 999.660156 1311.53125 1008.03125 C 1296.550781 982.578125 1279.429688 970.589844 1255.828125 953.679688 C 1255.660156 952.289062 1257.511719 952.039062 1261.339844 952.878906 "/>
<path fill-rule="nonzero" fill="rgb(99.609375%, 99.609375%, 99.609375%)" fill-opacity="1" d="M 704.207031 985.949219 C 712.074219 982.460938 725.496094 983.929688 729.03125 993.101562 C 733.488281 1005.46875 726.253906 1019.898438 711.824219 1018.011719 C 694.40625 1016.621094 688.640625 994.871094 704.207031 985.949219 "/>
<path fill-rule="nonzero" fill="rgb(99.609375%, 99.609375%, 99.609375%)" fill-opacity="1" d="M 1200.25 985.820312 C 1211.570312 980.308594 1226.511719 988.179688 1225.449219 1001.511719 C 1225.410156 1014.128906 1209.71875 1022.628906 1199.160156 1015.351562 C 1187.679688 1008.921875 1188.351562 991.5 1200.25 985.820312 "/>
<path fill-rule="nonzero" fill="rgb(99.609375%, 99.609375%, 99.609375%)" fill-opacity="1" d="M 639.167969 989.730469 C 641.3125 996.039062 638.160156 1003.28125 638.957031 1009.929688 C 638.871094 1030.039062 651.914062 1047.789062 669.753906 1056.160156 C 684.519531 1063.648438 705.34375 1062.46875 720.238281 1055.78125 C 734.246094 1049.140625 740.597656 1037.78125 747.75 1024.820312 C 748.339844 1020.910156 747.414062 1008.621094 753.894531 1010.261719 C 762.726562 1017.210938 765.125 1028.609375 761.128906 1039.171875 C 749.980469 1080.601562 700.546875 1101.929688 661.339844 1086.660156 C 636.222656 1077.789062 619.5625 1055.949219 612.496094 1030.960938 C 609.632812 1018.339844 615.230469 1006.730469 624.570312 998.320312 C 628.3125 995.328125 633.699219 986.75 639.167969 989.730469 "/>
<path fill-rule="nonzero" fill="rgb(99.609375%, 99.609375%, 99.609375%)" fill-opacity="1" d="M 1257.71875 994.148438 C 1264.539062 1001.179688 1272.699219 1007.871094 1273.121094 1018.339844 C 1274 1042.320312 1259.398438 1066.429688 1239.300781 1078.921875 C 1201.941406 1105.640625 1139.300781 1088.640625 1125.199219 1043.371094 C 1120.949219 1031.71875 1121.25 1020.988281 1130.039062 1011.609375 C 1139.078125 1007.488281 1135.210938 1019.980469 1139 1024.398438 C 1142.621094 1041.101562 1154.101562 1050.269531 1168.109375 1058.480469 C 1196.011719 1066.089844 1225.328125 1059.699219 1239.628906 1032.859375 C 1248.089844 1021.460938 1246.410156 1006.390625 1245.269531 993.101562 C 1247.078125 985.480469 1254.480469 990.789062 1257.71875 994.148438 "/>
<path fill-rule="nonzero" fill="rgb(99.609375%, 99.609375%, 99.609375%)" fill-opacity="1" d="M 516.027344 1011.859375 L 520.574219 1011.859375 C 520.742188 1021.371094 527.179688 1030.921875 531.132812 1039.378906 C 558.5625 1090.660156 602.273438 1134.828125 657.132812 1155.871094 C 666.007812 1155.949219 665.460938 1155.871094 658.433594 1151.871094 C 649.601562 1144.210938 629.195312 1134.539062 624.527344 1124.691406 L 627.683594 1123.808594 C 663.023438 1131.210938 703.238281 1126.210938 739.378906 1125.789062 C 747.160156 1122.171875 756.375 1120.988281 764.113281 1117 C 785.992188 1107.910156 802.691406 1091.5 815.988281 1072.320312 C 817.460938 1069.789062 820.824219 1062.140625 823.8125 1061.800781 C 824.652344 1064.699219 824.527344 1067.859375 823.476562 1071.21875 C 814.050781 1105.679688 778.167969 1130.210938 748.929688 1147.539062 C 746.363281 1149.140625 737.988281 1152.421875 738.03125 1155.699219 C 756.121094 1157.800781 774.378906 1140.769531 789.863281 1138.070312 C 791.589844 1144.210938 784.5625 1147.070312 780.605469 1150.230469 C 761.042969 1170.800781 735.003906 1190.621094 707.40625 1198.109375 C 693.5625 1203.660156 675.390625 1203.738281 661.550781 1197.980469 C 636.140625 1189.230469 612.578125 1171.980469 591.460938 1155.488281 C 566.386719 1133.320312 539.039062 1104.710938 527.722656 1072.820312 C 520.066406 1061.878906 523.011719 1045.011719 516.027344 1033.230469 C 515.777344 1026.289062 515.777344 1018.800781 516.027344 1011.859375 "/>
<path fill-rule="nonzero" fill="rgb(99.609375%, 99.609375%, 99.609375%)" fill-opacity="1" d="M 1366.351562 1015.820312 C 1367.691406 1019.140625 1368.238281 1022.800781 1367.988281 1026.761719 C 1366.71875 1060.328125 1352.378906 1093.898438 1330.5 1119.308594 C 1302.738281 1153.300781 1265.929688 1182.410156 1224.859375 1198.109375 C 1206.691406 1205.511719 1187.96875 1202.519531 1170.171875 1196.039062 C 1145.980469 1185.488281 1123.519531 1169.921875 1105.558594 1150.480469 C 1101.898438 1147.03125 1094.871094 1144.171875 1096.589844 1138.070312 C 1112.621094 1144.210938 1134.25 1158.640625 1151.621094 1155.28125 C 1116.789062 1136.941406 1074.71875 1111.898438 1062.941406 1071.21875 C 1061.679688 1068.070312 1060.671875 1060.28125 1063.28125 1058.140625 C 1075.558594 1087.671875 1103.238281 1113.878906 1134.839844 1121.238281 C 1140.089844 1124.019531 1143.039062 1127.011719 1149.351562 1125.960938 C 1178.589844 1127.851562 1208.421875 1128.480469 1237.699219 1127.128906 C 1244.96875 1125.238281 1254.398438 1123.769531 1261.71875 1124.859375 C 1254.988281 1137.019531 1231.011719 1146.230469 1222.421875 1155.621094 C 1228.570312 1158.429688 1236.730469 1152.421875 1242.371094 1150.019531 C 1301.140625 1122.628906 1340.351562 1073.328125 1366.351562 1015.820312 "/>
<path fill-rule="nonzero" fill="rgb(99.609375%, 99.609375%, 99.609375%)" fill-opacity="1" d="M 574.925781 1037.101562 L 575.304688 1037.101562 C 580.394531 1041.058594 581.785156 1046.820312 585.359375 1052 C 600.589844 1077.488281 626.042969 1101.089844 655.238281 1108.621094 C 657.929688 1110.640625 660.75 1112.109375 663.734375 1113.171875 C 649.894531 1115.441406 633.488281 1110.308594 620.699219 1104.960938 C 607.488281 1098.320312 586.578125 1093.730469 582.792969 1077.238281 C 581.617188 1062.390625 572.613281 1051.621094 574.925781 1037.101562 "/>
<path fill-rule="nonzero" fill="rgb(99.609375%, 99.609375%, 99.609375%)" fill-opacity="1" d="M 1307.449219 1041.269531 C 1312.75 1052.378906 1303.578125 1070.261719 1301.101562 1081.449219 C 1299.03125 1092.21875 1283.640625 1096.46875 1275.21875 1101.261719 C 1258.308594 1107.738281 1241.398438 1117.121094 1222.761719 1113.171875 C 1234.789062 1110.179688 1252.589844 1101.769531 1262.941406 1093.820312 C 1283.46875 1079.679688 1294.488281 1061.128906 1307.449219 1041.269531 "/>
<path fill-rule="nonzero" fill="rgb(99.609375%, 99.609375%, 99.609375%)" fill-opacity="1" d="M 871.6875 1085.988281 C 897.265625 1084.101562 922.382812 1101.339844 947.414062 1101.011719 C 961.464844 1095.621094 975.222656 1093.730469 989.230469 1088.601562 C 1004.710938 1083.378906 1021.25 1084.140625 1032.179688 1097.730469 C 1044.96875 1115.058594 1056.421875 1135.71875 1068.03125 1154.019531 C 1071.101562 1160.371094 1065.761719 1162.390625 1061 1164.621094 C 1031.808594 1178.628906 1005.808594 1200.210938 978.082031 1217.460938 C 972.695312 1219.898438 967.984375 1228.398438 961.972656 1226.761719 C 980.3125 1205.089844 1002.148438 1180.058594 1017.761719 1156.371094 C 1027.21875 1141.019531 1033.03125 1124.53125 1026.628906 1106.691406 C 1022.300781 1097.640625 1011.191406 1095.539062 1002.109375 1097.140625 C 988.265625 1100.121094 976.148438 1106.101562 964.242188 1111.109375 C 954.019531 1112.449219 950.359375 1120.78125 939 1117.960938 C 922.296875 1111.78125 905.722656 1102.730469 888.515625 1097.808594 C 877.871094 1095.039062 864.789062 1095.878906 859.191406 1106.691406 C 854.3125 1122.890625 857.890625 1138.828125 866.765625 1152.960938 C 882.332031 1177.828125 905.679688 1203.570312 924.445312 1226.761719 L 919.898438 1226.761719 C 913.253906 1219.519531 903.828125 1214.558594 895.964844 1208.878906 C 870.257812 1191.921875 845.855469 1173.75 818.046875 1160.121094 C 816.578125 1157.421875 816.914062 1154.269531 818.933594 1150.691406 C 829.15625 1135.550781 837.234375 1118.589844 847.835938 1103.699219 C 853.765625 1096.421875 861.632812 1086.75 871.6875 1085.988281 "/>
<path fill-rule="nonzero" fill="rgb(99.609375%, 99.609375%, 99.609375%)" fill-opacity="1" d="M 899.242188 1133.871094 C 910.730469 1139.96875 923.011719 1138.960938 934.792969 1143.539062 C 954.0625 1148.039062 977.703125 1133.070312 995.964844 1133.871094 C 976.949219 1154.140625 963.988281 1172.859375 947.539062 1195.039062 C 946.402344 1197.46875 944.175781 1198.269531 940.808594 1197.390625 C 925.242188 1177.699219 912.074219 1156.75 894.65625 1138.410156 C 893.4375 1134.289062 894.953125 1132.769531 899.242188 1133.871094 "/>
<path fill-rule="nonzero" fill="rgb(99.609375%, 99.609375%, 99.609375%)" fill-opacity="1" d="M 795.964844 1186.449219 C 813.546875 1185.441406 830.289062 1200.921875 844.933594 1209.300781 C 853.554688 1217.078125 866.640625 1223.050781 872.738281 1232.898438 C 867.144531 1241.519531 850.191406 1245.640625 841.566406 1252.761719 C 801.472656 1276.648438 764.703125 1304.539062 728.648438 1334.078125 C 707.445312 1350.398438 694.238281 1363.988281 675.851562 1382.414062 C 674.886719 1371.898438 688.179688 1362.179688 693.859375 1353.933594 C 696.382812 1349.980469 704.082031 1344.761719 702.480469 1339.628906 C 697.8125 1339.96875 693.3125 1346.648438 688.515625 1348.421875 C 669.289062 1364.660156 650.988281 1380.898438 635.085938 1400.378906 C 628.820312 1407.613281 623.476562 1418.425781 616.996094 1424.527344 C 615.652344 1418.761719 620.53125 1417.164062 621.203125 1411.484375 C 641.945312 1370.800781 664.832031 1329.488281 691.925781 1292.640625 C 717.964844 1257.378906 746.78125 1220.53125 780.4375 1192.21875 C 785.277344 1187.878906 789.355469 1186.371094 795.964844 1186.449219 "/>
<path fill-rule="nonzero" fill="rgb(99.609375%, 99.609375%, 99.609375%)" fill-opacity="1" d="M 1108.078125 1194.070312 C 1171.941406 1253.21875 1222.378906 1329.660156 1261.089844 1407.109375 C 1262.519531 1412.578125 1266.429688 1414.933594 1265.289062 1420.488281 C 1258.769531 1414.722656 1253.21875 1403.449219 1246.949219 1396.382812 C 1228.988281 1374.503906 1207.238281 1357.59375 1185.28125 1340.011719 L 1180.730469 1339.96875 C 1185.609375 1349.054688 1196.429688 1357.339844 1200.96875 1366.554688 C 1203.75 1370.507812 1207.621094 1373.03125 1206.441406 1378.25 C 1148.589844 1324.820312 1081.738281 1272.738281 1011.949219 1235.628906 C 1011.320312 1232.21875 1012.238281 1230.078125 1014.730469 1229.28125 C 1030.960938 1216.660156 1046.828125 1203.871094 1065 1194.070312 C 1079.300781 1186.789062 1094.828125 1181.28125 1108.078125 1194.070312 "/>
<path fill-rule="nonzero" fill="rgb(6.665039%, 5.880737%, 6.272888%)" fill-opacity="1" d="M 787.546875 1203.160156 C 801.515625 1206.730469 815.144531 1215.398438 827.976562 1222.039062 C 830.710938 1224.269531 838.875 1227.261719 837.613281 1231.679688 C 825.789062 1234.710938 811.613281 1232.21875 799.875 1235.71875 C 780.394531 1238.03125 768.703125 1255.320312 755.070312 1267.730469 C 731.597656 1290.410156 721.246094 1304.210938 701.09375 1327.71875 C 698.359375 1320.660156 702.523438 1317.039062 706.144531 1311.609375 C 722.800781 1279.050781 745.183594 1250.101562 767.984375 1221.671875 C 773.917969 1215.898438 779.722656 1205.890625 787.546875 1203.160156 "/>
<path fill-rule="nonzero" fill="rgb(6.665039%, 5.880737%, 6.272888%)" fill-opacity="1" d="M 1098.871094 1203.160156 C 1107.988281 1207.488281 1114.730469 1219.691406 1121.410156 1227.261719 C 1146.621094 1256.628906 1166.890625 1289.359375 1185.28125 1323.179688 L 1185.28125 1327.71875 C 1178.421875 1323.679688 1173.078125 1313.761719 1167.101562 1307.871094 C 1147.621094 1285.230469 1127.429688 1263.398438 1105.339844 1243.25 C 1087.378906 1229.449219 1068.949219 1235.800781 1048.71875 1231.679688 C 1048.300781 1229.320312 1049.730469 1227.261719 1053.011719 1225.539062 C 1067.441406 1217.671875 1083.171875 1207.53125 1098.871094 1203.160156 "/>
<path fill-rule="nonzero" fill="rgb(99.609375%, 99.609375%, 99.609375%)" fill-opacity="1" d="M 385.613281 1217.960938 L 385.949219 1218.011719 C 387.925781 1227.640625 381.699219 1232.390625 379.640625 1241.308594 C 369.289062 1266.511719 369.039062 1295.371094 360.203125 1321.238281 C 358.855469 1345.058594 357.300781 1368.824219 357.804688 1392.761719 C 358.183594 1397.308594 359.277344 1399.621094 361.042969 1399.746094 C 380.355469 1358.980469 405.511719 1326.839844 439.800781 1297.519531 L 441.480469 1297.519531 C 444.34375 1305.128906 439.546875 1315.019531 440.640625 1323.519531 C 433.152344 1332.308594 437.191406 1340.261719 435.171875 1350.695312 C 431.382812 1401.851562 438.410156 1450.484375 448.71875 1500.210938 C 455.742188 1496.046875 452.503906 1492.175781 454.523438 1485.316406 C 460.75 1460.578125 467.902344 1434.707031 478.125 1411.359375 C 482.582031 1404.460938 479.679688 1399.242188 486.917969 1394.699219 C 488.9375 1414.808594 483.089844 1426.125 482.246094 1447.453125 C 480.816406 1476.945312 480.144531 1511.0625 484.769531 1540.007812 C 486.789062 1571.011719 496.972656 1596.507812 503.410156 1626.460938 C 514.304688 1654.480469 523.351562 1678.082031 538.117188 1704.671875 C 540.597656 1712.664062 530.207031 1725.871094 524.90625 1731.71875 C 485.488281 1702.902344 456.753906 1665.796875 436.851562 1621.078125 C 405.804688 1554.015625 397.898438 1488.222656 390.15625 1415.605469 C 382.457031 1413.167969 385.445312 1423.855469 381.40625 1428.3125 C 372.023438 1450.945312 362.851562 1475.597656 351.367188 1497.9375 C 349.011719 1504.375 344.257812 1517.878906 339.085938 1521.621094 C 332.183594 1510.9375 335.96875 1498.527344 330.921875 1487.632812 C 329.449219 1461.632812 328.230469 1435.675781 328.859375 1409.59375 C 328.609375 1405.59375 329.40625 1402.144531 331.257812 1399.285156 C 330.585938 1366.132812 336.308594 1331.640625 346.402344 1300.210938 C 356.078125 1273.789062 368.617188 1240.261719 385.613281 1217.960938 "/>
<path fill-rule="nonzero" fill="rgb(99.609375%, 99.609375%, 99.609375%)" fill-opacity="1" d="M 1496.640625 1218.011719 C 1506.308594 1225.238281 1508.75 1235.589844 1514.941406 1245.519531 C 1536.011719 1285.28125 1548.171875 1327.128906 1553.140625 1371.730469 C 1557.890625 1381.65625 1554.609375 1394.152344 1555.871094 1405.386719 C 1557.890625 1449.640625 1553.558594 1478.289062 1547.078125 1521.328125 C 1539 1524.230469 1541.691406 1510.308594 1537.230469 1506.183594 C 1528.019531 1489.019531 1521.328125 1468.867188 1512.5 1450.945312 C 1508.921875 1441.144531 1502.019531 1422.464844 1496.011719 1415.269531 C 1491.710938 1428.101562 1494.871094 1443.332031 1490.28125 1455.867188 C 1489.320312 1470.929688 1485.949219 1491.839844 1482.039062 1506.351562 C 1476.691406 1536.8125 1468.53125 1565.796875 1457.808594 1594.699219 C 1441.398438 1642.488281 1413.628906 1686.074219 1375.519531 1719.855469 C 1370.46875 1723.683594 1363.949219 1734.203125 1357.011719 1727.933594 C 1353.511719 1719.855469 1342.449219 1709.464844 1348.46875 1700.714844 C 1370.089844 1658.8125 1386.121094 1615.691406 1395.839844 1569.457031 C 1404.039062 1531.804688 1402.738281 1486.367188 1401.640625 1447.453125 C 1397.351562 1437.820312 1400.589844 1428.269531 1398.609375 1418.003906 C 1398.449219 1411.988281 1396.46875 1404.164062 1399.289062 1398.695312 C 1408 1412.746094 1415.398438 1430.964844 1419.820312 1447.453125 C 1425.410156 1463.734375 1431.128906 1478.753906 1433.148438 1496.046875 L 1437.699219 1496.003906 C 1439.839844 1482.371094 1443.421875 1465.207031 1446.28125 1451.660156 C 1450.738281 1408.496094 1451.710938 1364.40625 1446.320312 1321.238281 C 1447.789062 1313.289062 1440.601562 1307.910156 1444.261719 1301.011719 C 1450.191406 1300.339844 1455.738281 1309.800781 1460.671875 1312.828125 C 1483.429688 1335 1503.910156 1360.789062 1518.21875 1389.230469 C 1521.421875 1393.773438 1518.558594 1401.21875 1526.039062 1399.367188 C 1527.980469 1379.847656 1525.5 1359.65625 1526.039062 1339.96875 C 1521.921875 1332.898438 1522.640625 1322.71875 1521.839844 1314.679688 C 1516.410156 1298.441406 1516.488281 1283.261719 1511.320312 1266.550781 C 1506.519531 1255.699219 1507.570312 1245.441406 1500.460938 1235.171875 C 1501.390625 1227.050781 1494.148438 1223.390625 1496.640625 1218.011719 "/>
<path fill-rule="nonzero" fill="rgb(99.609375%, 99.609375%, 99.609375%)" fill-opacity="1" d="M 880.101562 1246.699219 C 884.351562 1245.179688 888.011719 1245.351562 891.125 1247.121094 C 905.976562 1260.410156 921.160156 1273.578125 937.402344 1285.109375 C 940.304688 1287.421875 943.375 1287.839844 946.65625 1286.371094 C 963.820312 1274.800781 979.554688 1260.789062 994.65625 1246.699219 C 1002.859375 1243 1014.089844 1252.671875 1021.671875 1255.570312 C 1103.199219 1303.578125 1176.230469 1367.480469 1235.761719 1440.976562 C 1237.570312 1447.285156 1246.28125 1451.703125 1244.300781 1458.140625 C 1223.601562 1438.410156 1210.140625 1427.34375 1187.210938 1410.097656 C 1140.351562 1375.515625 1092.679688 1343.421875 1041.609375 1315.269531 C 1037.230469 1312.910156 1034.539062 1309.460938 1029.28125 1310.558594 C 1039.761719 1324.988281 1054.730469 1339 1065.25 1354.898438 C 1081.53125 1377.03125 1095.960938 1402.605469 1105.339844 1428.269531 C 1109.128906 1441.480469 1110.269531 1454.984375 1105.980469 1468.238281 C 1095.460938 1494.65625 1076.269531 1520.191406 1058.730469 1542.320312 C 1066.558594 1545.140625 1068.578125 1540.765625 1074.378906 1537.0625 C 1098.191406 1524.527344 1115.988281 1503.113281 1125.789062 1478.25 C 1129.109375 1472.992188 1128.441406 1463.523438 1136.730469 1463.691406 C 1205.261719 1510.769531 1264.28125 1582.035156 1288.351562 1662.011719 C 1296.339844 1682.878906 1291.761719 1705.847656 1277.488281 1722.84375 C 1260.410156 1743.289062 1235.589844 1759.109375 1212.621094 1772.105469 C 1170.71875 1790.324219 1128.359375 1801.21875 1082.039062 1801.21875 C 989.484375 1801.261719 896.929688 1801.347656 804.375 1801.179688 C 748.632812 1798.570312 696.089844 1789.691406 648.71875 1758.140625 C 625.117188 1741.566406 597.644531 1722.085938 593.394531 1691.460938 C 591.292969 1662.515625 608.246094 1629.574219 620.699219 1604.121094 C 651.703125 1547.496094 697.855469 1497.9375 751.410156 1461.882812 C 752.96875 1462.390625 754.566406 1463.820312 756.164062 1466.132812 C 763.484375 1496.339844 783.425781 1523.222656 811.402344 1537.355469 C 815.355469 1539.714844 819.144531 1543.878906 824.066406 1542.828125 C 824.652344 1539.964844 823.855469 1537.566406 821.625 1535.632812 C 805.21875 1515.398438 789.441406 1492.679688 780.3125 1468.238281 C 772.949219 1447.917969 780.394531 1428.230469 788.347656 1409.59375 C 805.933594 1372.441406 829.40625 1340.390625 857.132812 1310.46875 C 852.671875 1309 849.097656 1309.550781 846.277344 1312.160156 C 778.253906 1351.871094 707.488281 1399.496094 647.878906 1450.695312 C 642.113281 1453.804688 645.4375 1459.738281 638.03125 1458.140625 C 636.644531 1452.167969 641.144531 1451.535156 644.132812 1447.285156 C 689.988281 1388.640625 745.015625 1336.730469 805.132812 1292.851562 C 829.367188 1275.089844 853.050781 1259.820312 880.101562 1246.699219 "/>
<path fill-rule="nonzero" fill="rgb(99.609375%, 99.609375%, 99.609375%)" fill-opacity="1" d="M 768.40625 1386.285156 L 768.871094 1386.285156 C 771.394531 1393.5625 762.683594 1397.179688 762.433594 1405.386719 C 757.890625 1415.773438 755.910156 1426.925781 752.378906 1437.566406 C 699.832031 1470.089844 650.863281 1509.632812 612.789062 1558.730469 C 605.511719 1569.328125 596.046875 1580.351562 592.089844 1592.765625 C 588.09375 1597.8125 589.230469 1601.640625 583.339844 1605.46875 C 582.585938 1601.136719 583.003906 1597.476562 584.5625 1594.488281 C 594.953125 1559.824219 606.101562 1527.890625 628.988281 1499.117188 C 650.148438 1475.726562 676.359375 1456.457031 700.378906 1436.136719 C 722.425781 1418.382812 744.761719 1401.808594 768.40625 1386.285156 "/>
<path fill-rule="nonzero" fill="rgb(99.609375%, 99.609375%, 99.609375%)" fill-opacity="1" d="M 1117.96875 1386.285156 C 1128.101562 1395.835938 1140.640625 1402.902344 1151.921875 1411.316406 C 1187.550781 1438.15625 1223.941406 1465.460938 1255.070312 1497.515625 C 1277.410156 1525.453125 1289.058594 1556.835938 1299.410156 1590.492188 C 1300.089844 1598.402344 1305.011719 1601.007812 1303.070312 1609.589844 C 1298.230469 1606.4375 1298.320312 1604.375 1297.648438 1598.90625 C 1262.351562 1531.550781 1197.019531 1478.121094 1133.910156 1437.695312 C 1129.960938 1419.015625 1123.101562 1403.027344 1113.421875 1386.621094 C 1114.21875 1386.03125 1115.738281 1385.949219 1117.96875 1386.285156 "/>
<path fill-rule="nonzero" fill="rgb(6.665039%, 5.880737%, 6.272888%)" fill-opacity="1" d="M 899.203125 1394.699219 C 911.613281 1401.472656 925.703125 1406.476562 939 1411.148438 C 955.53125 1411.652344 972.234375 1399.957031 987.589844 1394.699219 L 987.550781 1399.242188 C 979.472656 1403.617188 972.570312 1409.59375 964.242188 1413.714844 C 957.46875 1417.121094 948.71875 1425.660156 940.808594 1424.484375 C 927.429688 1419.226562 916.535156 1408.75 903.074219 1403.449219 C 900.296875 1400.714844 896.972656 1398.609375 899.203125 1394.699219 "/>
<path fill-rule="nonzero" fill="rgb(6.665039%, 5.880737%, 6.272888%)" fill-opacity="1" d="M 850.652344 1425.492188 C 882.753906 1424.652344 916.953125 1440.511719 933.445312 1468.488281 C 938.117188 1484.5625 934.792969 1503.617188 923.769531 1516.28125 C 918.300781 1522.253906 912.203125 1520.613281 905.34375 1518.679688 C 890.914062 1512.621094 877.578125 1504.835938 864.199219 1496.71875 C 847.664062 1485.148438 825.328125 1469.414062 819.269531 1449.347656 C 815.3125 1443.375 817.335938 1436.433594 822.296875 1431.804688 C 829.238281 1425.242188 841.691406 1425.832031 850.652344 1425.492188 "/>
<path fill-rule="nonzero" fill="rgb(6.665039%, 5.880737%, 6.272888%)" fill-opacity="1" d="M 1008.160156 1428.355469 C 1023.269531 1425.660156 1042.488281 1422.886719 1056.800781 1429.28125 C 1064.199219 1431.171875 1066.929688 1435.757812 1066.980469 1443.246094 C 1066.71875 1452.378906 1060.789062 1460.203125 1055.320312 1467.058594 C 1036.640625 1489.859375 1006.980469 1505.132812 980.859375 1517.835938 C 974.296875 1520.699219 967.691406 1522.128906 961.675781 1517.332031 C 950.316406 1504.5 947.160156 1484.980469 952.839844 1469.078125 C 964.117188 1448 985.863281 1435 1008.160156 1428.355469 "/>
<path fill-rule="nonzero" fill="rgb(99.609375%, 99.609375%, 99.609375%)" fill-opacity="1" d="M 1269.078125 1773.328125 L 1269.421875 1773.328125 C 1270.261719 1779.429688 1269.25 1782.835938 1266.769531 1788.222656 C 1255.789062 1837.148438 1242.28125 1874.800781 1223.140625 1920.949219 C 1219.648438 1922.632812 1217.421875 1921.878906 1216.410156 1918.636719 C 1209.511719 1907.277344 1202.148438 1896.382812 1195.289062 1884.980469 C 1192.429688 1880.941406 1191.171875 1874.632812 1184.941406 1878.503906 C 1183.089844 1886.621094 1179.21875 1894.488281 1175.769531 1902.101562 C 1169.328125 1910.726562 1169.5 1926.421875 1159.699219 1933.195312 C 1157.011719 1944.300781 1149.050781 1954.0625 1143.921875 1964.242188 C 1123.601562 1998.863281 1094.359375 2039.839844 1062.691406 2064.199219 C 1057.429688 2019.730469 1067.308594 1979.34375 1071.691406 1937.402344 C 1065 1935.886719 1066.050781 1941.144531 1061.589844 1944.425781 C 1015.019531 1990.871094 976.777344 2045.4375 946.320312 2103.535156 C 942.660156 2110.011719 939.421875 2107.53125 936.644531 2101.9375 C 910.941406 2054.019531 880.0625 2008.160156 844.089844 1967.269531 C 835.507812 1957.550781 825.242188 1944.300781 814.640625 1937.316406 C 811.90625 1946.109375 817.585938 1955.195312 817.585938 1964.914062 C 819.816406 1977.746094 816.746094 1988.601562 823.476562 2000.464844 C 822.761719 2021.414062 825.539062 2043.375 823.476562 2063.945312 C 798.234375 2044.003906 780.230469 2021.035156 762.515625 1994.363281 C 743.585938 1966.765625 726.378906 1936.222656 712.664062 1905.847656 C 706.605469 1899.453125 704.460938 1879.007812 696.089844 1877.535156 C 686.746094 1890.785156 678.546875 1905.007812 669.667969 1918.636719 C 668.867188 1921.582031 666.722656 1922.339844 663.230469 1920.992188 C 656.5 1906.605469 650.570312 1894.238281 646.78125 1878.503906 C 640.179688 1868.742188 638.664062 1855.828125 633.824219 1845.265625 C 630.207031 1831.046875 624.570312 1819.984375 623.054688 1805.050781 C 622.003906 1795.246094 615.273438 1786.957031 616.953125 1777.449219 L 621.539062 1777.535156 C 630.964844 1787.925781 645.855469 1792.59375 655.742188 1801.933594 C 664.15625 1820.488281 670.804688 1841.1875 680.734375 1858.140625 C 685.359375 1844.929688 680.394531 1828.691406 684.015625 1815.144531 C 694.027344 1814.347656 705.679688 1822.886719 716.03125 1824.570312 C 730.796875 1826.253906 744.046875 1833.109375 758.101562 1833.277344 C 774.71875 1835.71875 787.84375 1835.464844 804.375 1838.199219 C 895.5 1838.703125 986.707031 1838.871094 1077.828125 1838.285156 C 1113.671875 1835.046875 1148.761719 1831.761719 1183.011719 1818.804688 C 1189.949219 1818.089844 1195.789062 1812.074219 1202.101562 1815.398438 C 1203.871094 1828.3125 1201.980469 1842.492188 1205.21875 1855.027344 L 1207.109375 1855.070312 C 1214.089844 1842.574219 1217.378906 1829.996094 1223.808594 1817.414062 C 1226.339844 1810.558594 1227.308594 1802.269531 1233.910156 1797.601562 C 1246.03125 1790.027344 1257.96875 1782.414062 1269.078125 1773.328125 "/>
</svg>
